<svg width="72" height="72" viewBox="0 0 72 72" fill="none" xmlns="http://www.w3.org/2000/svg">
<path d="M30 44C29.2 51.878 27.2 60.2195 26 63" stroke="#01D95A" stroke-width="6" stroke-linecap="round"/>
<path d="M39 43C40 51.2927 42.5 60.0732 44 63" stroke="#01D95A" stroke-width="6" stroke-linecap="round"/>
<path d="M22.9245 52.0005C24.4631 51.3857 25.212 49.6401 24.5972 48.1015C23.9824 46.563 22.2367 45.8141 20.6982 46.4289L22.9245 52.0005ZM8.01018 37.2067L5.01302 37.0762L8.01018 37.2067ZM23.1468 26.9777L23.1468 29.9777C24.283 29.9777 25.3218 29.3357 25.83 28.3195C26.3382 27.3032 26.2286 26.087 25.547 25.1779L23.1468 26.9777ZM20.4756 16.7487L17.793 15.4057L20.4756 16.7487ZM46.2965 21L43.3186 21.3641C43.4177 22.1741 43.8424 22.9088 44.4949 23.3989C45.1474 23.8889 45.9714 24.092 46.7769 23.9613L46.2965 21ZM58.5 23L56.9895 25.592L58.5 23ZM60.5431 40.7646L63.3281 41.8798L63.3281 41.8798L60.5431 40.7646ZM46.4325 43.994C44.7774 43.9189 43.3747 45.1997 43.2996 46.8549C43.2244 48.51 44.5052 49.9127 46.1604 49.9879L46.4325 43.994ZM20.6982 46.4289C19.0113 47.103 17.6869 47.1046 16.6486 46.8219C15.583 46.5317 14.5901 45.8779 13.7121 44.8903C11.8851 42.8353 10.9038 39.7163 11.0073 37.3371L5.01302 37.0762C4.84514 40.9334 6.31243 45.5974 9.22791 48.8768C10.7211 50.5564 12.6729 51.9577 15.0721 52.611C17.4987 53.2718 20.1594 53.1054 22.9245 52.0005L20.6982 46.4289ZM11.0073 37.3371C11.1493 34.0759 13.431 32.2215 16.7186 31.0941C18.3144 30.5468 19.9378 30.2621 21.1884 30.1177C21.8065 30.0463 22.3162 30.0112 22.6633 29.9939C22.8365 29.9854 22.9681 29.9813 23.0512 29.9793C23.0927 29.9784 23.1221 29.978 23.1383 29.9778C23.1464 29.9777 23.1513 29.9777 23.1527 29.9776C23.1534 29.9776 23.1533 29.9776 23.1523 29.9776C23.1518 29.9777 23.1511 29.9777 23.1502 29.9777C23.1498 29.9777 23.1489 29.9777 23.1487 29.9777C23.1478 29.9777 23.1468 29.9777 23.1468 26.9777C23.1468 23.9777 23.1457 23.9777 23.1446 23.9777C23.1441 23.9777 23.1429 23.9777 23.142 23.9777C23.1402 23.9777 23.1381 23.9777 23.1359 23.9777C23.1313 23.9777 23.1259 23.9777 23.1196 23.9777C23.1069 23.9778 23.0906 23.9779 23.0709 23.9782C23.0316 23.9786 22.9783 23.9794 22.9121 23.981C22.7798 23.984 22.5953 23.9899 22.3659 24.0013C21.9079 24.0241 21.2664 24.0688 20.5002 24.1573C18.9822 24.3326 16.905 24.6871 14.7723 25.4185C10.6029 26.8483 5.31629 30.1084 5.01302 37.0762L11.0073 37.3371ZM23.1468 26.9777C25.547 25.1779 25.5474 25.1785 25.5478 25.1791C25.548 25.1792 25.5484 25.1798 25.5486 25.1801C25.5491 25.1807 25.5495 25.1812 25.5498 25.1817C25.5504 25.1825 25.5508 25.183 25.5509 25.1832C25.5511 25.1835 25.5503 25.1824 25.5484 25.1798C25.5447 25.1747 25.5368 25.164 25.5252 25.148C25.502 25.1159 25.4638 25.0625 25.4134 24.9899C25.3123 24.8445 25.1633 24.6239 24.9874 24.3442C24.6315 23.7784 24.1854 23.0028 23.8005 22.14C23.4092 21.263 23.126 20.395 23.0211 19.6274C22.9161 18.8588 23.0137 18.3805 23.1583 18.0917L17.793 15.4057C16.937 17.1157 16.8681 18.9154 17.0763 20.4395C17.2847 21.9646 17.7943 23.404 18.321 24.5845C18.854 25.7793 19.4509 26.8113 19.9086 27.5389C20.1394 27.9059 20.3399 28.2033 20.4865 28.4142C20.5599 28.5199 20.6202 28.6043 20.6644 28.6654C20.6865 28.696 20.7047 28.7208 20.7185 28.7395C20.7254 28.7489 20.7312 28.7567 20.7359 28.7631C20.7382 28.7662 20.7403 28.769 20.7421 28.7714C20.743 28.7726 20.7438 28.7737 20.7445 28.7747C20.7449 28.7752 20.7454 28.7758 20.7456 28.7761C20.7461 28.7767 20.7466 28.7774 23.1468 26.9777ZM23.1583 18.0917C25.4823 13.4494 31.0243 11.3604 37.4664 12.165L38.21 6.21123C30.4069 5.23671 21.7031 7.59531 17.793 15.4057L23.1583 18.0917ZM37.4664 12.165C39.3749 12.4033 40.8692 14.0288 41.9831 16.6146C42.5017 17.8183 42.8416 19.0252 43.0515 19.946C43.1552 20.4013 43.2244 20.7742 43.2666 21.0256C43.2876 21.1511 43.3018 21.2454 43.3102 21.3036C43.3144 21.3327 43.3171 21.3528 43.3185 21.3631C43.3191 21.3682 43.3195 21.3709 43.3195 21.3711C43.3195 21.3713 43.3195 21.3707 43.3193 21.3696C43.3192 21.369 43.3192 21.3682 43.319 21.3673C43.319 21.3669 43.3189 21.3661 43.3189 21.3659C43.3188 21.365 43.3186 21.3641 46.2965 21C49.2743 20.6359 49.2742 20.6349 49.274 20.6339C49.274 20.6335 49.2739 20.6325 49.2738 20.6317C49.2736 20.6301 49.2734 20.6284 49.2731 20.6265C49.2726 20.6226 49.2721 20.6182 49.2714 20.613C49.2701 20.6027 49.2684 20.5898 49.2664 20.5742C49.2623 20.5431 49.2566 20.5017 49.2493 20.4506C49.2346 20.3484 49.2131 20.2072 49.1838 20.0322C49.1251 19.6829 49.0343 19.1955 48.9015 18.6129C48.6383 17.4581 48.1992 15.8788 47.4935 14.2407C46.159 11.1429 43.4241 6.86241 38.21 6.21123L37.4664 12.165ZM46.2965 21C46.7769 23.9613 46.7761 23.9614 46.7754 23.9615C46.7751 23.9616 46.7744 23.9617 46.7739 23.9618C46.7731 23.9619 46.7723 23.962 46.7716 23.9621C46.7702 23.9624 46.7693 23.9625 46.7687 23.9626C46.7676 23.9628 46.768 23.9627 46.77 23.9624C46.7741 23.9618 46.7844 23.9602 46.8007 23.9579C46.8332 23.9532 46.8897 23.9454 46.9679 23.9358C47.1247 23.9165 47.3678 23.89 47.6813 23.8659C48.3112 23.8176 49.2102 23.7807 50.2555 23.8293C52.3939 23.9288 54.9025 24.3758 56.9895 25.592L60.0105 20.408C56.7552 18.511 53.162 17.958 50.5343 17.8358C49.1964 17.7736 48.0462 17.8203 47.2227 17.8835C46.8095 17.9152 46.4748 17.9512 46.2355 17.9807C46.1157 17.9954 46.0195 18.0085 45.949 18.0186C45.9137 18.0237 45.8848 18.028 45.8626 18.0314C45.8515 18.0331 45.842 18.0346 45.8342 18.0358C45.8303 18.0364 45.8269 18.037 45.8238 18.0375C45.8223 18.0377 45.8209 18.0379 45.8196 18.0381C45.819 18.0382 45.8181 18.0384 45.8177 18.0384C45.8169 18.0386 45.816 18.0387 46.2965 21ZM56.9895 25.592C57.0475 25.6258 57.427 25.9258 57.8544 26.9583C58.2548 27.9257 58.5697 29.236 58.7321 30.7634C59.0613 33.8603 58.7079 37.2772 57.7581 39.6494L63.3281 41.8798C64.7282 38.3831 65.1033 33.9375 64.6985 30.1292C64.4938 28.204 64.0761 26.3011 63.3981 24.6634C62.7472 23.0908 61.7025 21.394 60.0105 20.408L56.9895 25.592ZM57.7581 39.6494C56.8954 41.8039 55.1443 42.9383 52.8797 43.5336C50.5472 44.1468 48.0661 44.0682 46.4325 43.994L46.1604 49.9879C47.7916 50.0619 51.0982 50.2058 54.4051 49.3364C57.7798 48.4493 61.5196 46.3964 63.3281 41.8798L57.7581 39.6494Z" fill="#01D95A"/>
</svg>
