<svg width="72" height="72" viewBox="0 0 72 72" fill="none" xmlns="http://www.w3.org/2000/svg">
<path d="M42.5 11C42.5 13.1476 41.8629 14.4914 40.9159 15.309C39.9551 16.1386 38.5916 16.5 37 16.5C35.1183 16.5 33.7595 15.8721 32.8678 14.9039C31.9767 13.9364 31.5071 12.5798 31.5001 11.0354C31.9843 7.73038 34.0066 5.51533 36.9692 5.50008C38.8777 5.74365 40.249 6.38013 41.1424 7.29432C42.0347 8.2074 42.5 9.44823 42.5 11Z" fill="#01D95A" stroke="#01D95A"/>
<path d="M27.3521 39.5C27.8521 44 26.3521 34 27.3521 31C28.3521 28 33.8521 22 35.8521 22C37.8521 22 34.734 39.2639 35.8521 41.5C37.3521 44.5 39.8521 45.5 42.3521 48C44.3521 50 46.5187 61.8333 47.3521 65" stroke="#01D95A" stroke-width="6" stroke-linecap="round"/>
<path d="M43 29.5C44 32 45.5 33.5 46.5 34.5C47.3 35.3 49.6667 37.6667 50.5 38.0001" stroke="#01D95A" stroke-width="6" stroke-linecap="round"/>
<path d="M33 49.5C32.5 53.0556 31.3 55.8741 30.5 57.2963C29.7 58.7185 26.8333 62.6296 25 65" stroke="#01D95A" stroke-width="6" stroke-linecap="round"/>
</svg>
