<svg width="72" height="72" viewBox="0 0 72 72" fill="none" xmlns="http://www.w3.org/2000/svg">
<path d="M16.0269 60C15.2269 58 33 33.4999 34 33.5C35 33.5001 38.1666 35.5 38.5 36.5C38.8333 37.5 25.4269 64.5 23.0269 64.5C20.0269 64.5 17.0269 62.5 16.0269 60Z" stroke="#01D95A" stroke-width="6" stroke-linecap="round" stroke-linejoin="round"/>
<path d="M34.6101 5.51583C36.7788 4.95699 61.1017 18.7206 61.7394 20.8675C62.3772 23.0145 55.2319 35.6414 53.0631 36.2002C52.0075 36.4723 46.1209 31.8583 39.7943 28.3013C33.1227 24.5503 26.021 21.8147 25.9337 20.8485C25.7637 18.9662 32.4413 6.07467 34.6101 5.51583Z" stroke="#01D95A" stroke-width="6" stroke-linejoin="round"/>
</svg>
