<svg width="72" height="72" viewBox="0 0 72 72" fill="none" xmlns="http://www.w3.org/2000/svg">
<path d="M23 27.2811C28.5 19 34.9316 10.6526 36.0019 10.7019C37.0722 10.7511 41.3893 15.9951 49.9407 28.2812" stroke="#01D95A" stroke-width="6" stroke-linecap="round" stroke-linejoin="round"/>
<path d="M42.8986 29.0381L50.785 29.401L52.7793 20.9838" stroke="#01D95A" stroke-width="6" stroke-linecap="round" stroke-linejoin="round"/>
<path d="M55.0083 37.7884C59.5663 47.5082 62.0363 54.6564 61.3723 55.4973C60.7084 56.3382 53.9309 56.7888 38.9633 56.5745" stroke="#01D95A" stroke-width="6" stroke-linecap="round" stroke-linejoin="round"/>
<path d="M42.4536 50.4113L37.5613 56.6074L43.2377 63.1347" stroke="#01D95A" stroke-width="6" stroke-linecap="round" stroke-linejoin="round"/>
<path d="M29.1499 57.576C18.4174 57.8304 10.88 57.2102 10.378 56.2637C9.87596 55.3171 12.1352 50.2322 18.3633 36.6203" stroke="#01D95A" stroke-width="6" stroke-linecap="round" stroke-linejoin="round"/>
<path d="M22.5971 42.2983L18.898 35.3238L10.6367 37.8884" stroke="#01D95A" stroke-width="6" stroke-linecap="round" stroke-linejoin="round"/>
</svg>
